<mxfile host="app.diagrams.net" modified="2023-03-30T18:44:31.666Z" agent="Mozilla/5.0 (Windows NT 10.0; Win64; x64) AppleWebKit/537.36 (KHTML, like Gecko) Chrome/111.0.0.0 Safari/537.36" etag="bmuow_9YBvFm0YmWBAT2" version="21.1.2" type="github">
  <diagram name="PÃ¡gina-1" id="7hT3riUat1Lvi58DEs5a">
    <mxGraphModel dx="880" dy="452" grid="1" gridSize="10" guides="1" tooltips="1" connect="1" arrows="1" fold="1" page="1" pageScale="1" pageWidth="827" pageHeight="1169" math="0" shadow="0">
      <root>
        <mxCell id="0" />
        <mxCell id="1" parent="0" />
        <mxCell id="OqXUxo3so3ymGHdo6bM8-2" value="&lt;h1&gt;Lampara velador&lt;/h1&gt;&lt;p&gt;1 - Inicio&lt;br&gt;2 - &lt;b&gt;La lampara esta prendida?&lt;/b&gt;&lt;br&gt;&lt;span style=&quot;white-space: pre;&quot;&gt; &lt;span style=&quot;white-space: pre;&quot;&gt;	&lt;/span&gt;&lt;/span&gt;Si&lt;br&gt;&lt;span style=&quot;white-space: pre;&quot;&gt; &lt;span style=&quot;white-space: pre;&quot;&gt;	&lt;/span&gt;&lt;/span&gt;3 - Imprime &quot;La lampara esta prendida&quot;&lt;br&gt;&lt;span style=&quot;white-space: pre;&quot;&gt; &lt;span style=&quot;white-space: pre;&quot;&gt;	&lt;/span&gt;&lt;/span&gt;No&lt;br&gt;&lt;span style=&quot;white-space: pre;&quot;&gt; &lt;span style=&quot;white-space: pre;&quot;&gt;	&lt;/span&gt;&lt;/span&gt;4 - Pulsar Boton&lt;br&gt;&lt;span style=&quot;white-space: pre;&quot;&gt; &lt;/span&gt;&lt;span style=&quot;white-space: pre;&quot;&gt; &lt;span style=&quot;white-space: pre;&quot;&gt;	&lt;/span&gt;&lt;span style=&quot;white-space: pre;&quot;&gt;	&lt;/span&gt;&lt;/span&gt;&lt;b&gt;5 - La lampara se &lt;u&gt;prende&lt;/u&gt;?&lt;/b&gt;&lt;br&gt;&lt;span style=&quot;white-space: pre;&quot;&gt; &lt;/span&gt;&lt;span style=&quot;white-space: pre;&quot;&gt; &lt;span style=&quot;white-space: pre;&quot;&gt;	&lt;/span&gt;&lt;span style=&quot;white-space: pre;&quot;&gt;	&lt;/span&gt;&lt;/span&gt;Si&lt;br&gt;&lt;span style=&quot;white-space: pre;&quot;&gt; &lt;/span&gt;&lt;span style=&quot;white-space: pre;&quot;&gt; &lt;span style=&quot;white-space: pre;&quot;&gt;	&lt;/span&gt;&lt;span style=&quot;white-space: pre;&quot;&gt;	&lt;/span&gt;&lt;/span&gt;6 - Imprime &quot;La lampara prende&quot;&lt;br&gt;&lt;span style=&quot;white-space: pre;&quot;&gt; &lt;/span&gt;&lt;span style=&quot;white-space: pre;&quot;&gt; &lt;span style=&quot;white-space: pre;&quot;&gt;	&lt;/span&gt;&lt;span style=&quot;white-space: pre;&quot;&gt;	&lt;/span&gt;&lt;/span&gt;No&lt;br&gt;&lt;span style=&quot;white-space: pre;&quot;&gt; &lt;/span&gt;&lt;span style=&quot;white-space: pre;&quot;&gt; &lt;/span&gt;&lt;span style=&quot;white-space: pre;&quot;&gt; &lt;span style=&quot;white-space: pre;&quot;&gt;	&lt;/span&gt;&lt;span style=&quot;white-space: pre;&quot;&gt;	&lt;span style=&quot;white-space: pre;&quot;&gt;	&lt;/span&gt;&lt;/span&gt;&lt;/span&gt;&lt;b&gt;7 - La Lampara esta &lt;u&gt;quemada&lt;/u&gt;?&lt;/b&gt;&lt;br&gt;&lt;span style=&quot;white-space: pre;&quot;&gt; &lt;/span&gt;&lt;span style=&quot;white-space: pre;&quot;&gt; &lt;/span&gt;&lt;span style=&quot;white-space: pre;&quot;&gt; &lt;span style=&quot;white-space: pre;&quot;&gt;	&lt;/span&gt;&lt;span style=&quot;white-space: pre;&quot;&gt;	&lt;/span&gt;&lt;span style=&quot;white-space: pre;&quot;&gt;	&lt;/span&gt;&lt;/span&gt;Si&lt;br&gt;&lt;span style=&quot;white-space: pre;&quot;&gt; &lt;/span&gt;&lt;span style=&quot;white-space: pre;&quot;&gt; &lt;/span&gt;&lt;span style=&quot;white-space: pre;&quot;&gt; &lt;span style=&quot;white-space: pre;&quot;&gt;	&lt;/span&gt;&lt;span style=&quot;white-space: pre;&quot;&gt;	&lt;/span&gt;&lt;span style=&quot;white-space: pre;&quot;&gt;	&lt;/span&gt;&lt;/span&gt;8 - Imprime &quot;Reemplaze lampara&quot;&lt;br&gt;&lt;span style=&quot;white-space: pre;&quot;&gt; &lt;/span&gt;&lt;span style=&quot;white-space: pre;&quot;&gt; &lt;/span&gt;&lt;span style=&quot;white-space: pre;&quot;&gt; &lt;span style=&quot;white-space: pre;&quot;&gt;	&lt;/span&gt;&lt;span style=&quot;white-space: pre;&quot;&gt;	&lt;/span&gt;&lt;span style=&quot;white-space: pre;&quot;&gt;	&lt;/span&gt;&lt;/span&gt;No&lt;br&gt;&lt;span style=&quot;white-space: pre;&quot;&gt; &lt;/span&gt;&lt;span style=&quot;white-space: pre;&quot;&gt; &lt;/span&gt;&lt;span style=&quot;white-space: pre;&quot;&gt; &lt;span style=&quot;white-space: pre;&quot;&gt; &lt;span style=&quot;white-space: pre;&quot;&gt;	&lt;/span&gt;&lt;span style=&quot;white-space: pre;&quot;&gt;	&lt;/span&gt;&lt;span style=&quot;white-space: pre;&quot;&gt;	&lt;/span&gt;&lt;span style=&quot;white-space: pre;&quot;&gt;	&lt;/span&gt;&lt;/span&gt;&lt;/span&gt;&lt;b&gt;9 - La lampara esta &lt;u&gt;enchufada&lt;/u&gt;?&lt;/b&gt;&lt;br&gt;&lt;span style=&quot;white-space: pre;&quot;&gt; &lt;/span&gt;&lt;span style=&quot;white-space: pre;&quot;&gt; &lt;/span&gt;&lt;span style=&quot;white-space: pre;&quot;&gt; &lt;span style=&quot;white-space: pre;&quot;&gt; &lt;span style=&quot;white-space: pre;&quot;&gt;	&lt;/span&gt;&lt;span style=&quot;white-space: pre;&quot;&gt;	&lt;/span&gt;&lt;span style=&quot;white-space: pre;&quot;&gt;	&lt;/span&gt;&lt;span style=&quot;white-space: pre;&quot;&gt;	&lt;/span&gt;&lt;span style=&quot;white-space: pre;&quot;&gt;	&lt;/span&gt;&lt;/span&gt;&lt;/span&gt;Si&lt;br&gt;&lt;span style=&quot;white-space: pre;&quot;&gt; &lt;/span&gt;&lt;span style=&quot;white-space: pre;&quot;&gt; &lt;/span&gt;&lt;span style=&quot;white-space: pre;&quot;&gt; &lt;/span&gt;&lt;span style=&quot;white-space: pre;&quot;&gt; &lt;span style=&quot;white-space: pre;&quot;&gt;	&lt;/span&gt;&lt;span style=&quot;white-space: pre;&quot;&gt;	&lt;/span&gt;&lt;span style=&quot;white-space: pre;&quot;&gt;	&lt;/span&gt;&lt;span style=&quot;white-space: pre;&quot;&gt;	&lt;/span&gt;&lt;span style=&quot;white-space: pre;&quot;&gt;	&lt;/span&gt;&lt;/span&gt;10 - Imprime &quot;Revise el resto del circuito electrico&quot;&lt;br&gt;&lt;span style=&quot;white-space: pre;&quot;&gt; &lt;/span&gt;&lt;span style=&quot;white-space: pre;&quot;&gt; &lt;/span&gt;&lt;span style=&quot;white-space: pre;&quot;&gt; &lt;/span&gt;&lt;span style=&quot;white-space: pre;&quot;&gt; &lt;span style=&quot;white-space: pre;&quot;&gt;	&lt;/span&gt;&lt;span style=&quot;white-space: pre;&quot;&gt;	&lt;/span&gt;&lt;span style=&quot;white-space: pre;&quot;&gt;	&lt;/span&gt;&lt;span style=&quot;white-space: pre;&quot;&gt;	&lt;/span&gt;&lt;span style=&quot;white-space: pre;&quot;&gt;	&lt;/span&gt;&lt;/span&gt;No&lt;br&gt;&lt;span style=&quot;white-space: pre;&quot;&gt; &lt;/span&gt;&lt;span style=&quot;white-space: pre;&quot;&gt; &lt;/span&gt;&lt;span style=&quot;white-space: pre;&quot;&gt; &lt;/span&gt;&lt;span style=&quot;white-space: pre;&quot;&gt; &lt;span style=&quot;white-space: pre;&quot;&gt;	&lt;/span&gt;&lt;span style=&quot;white-space: pre;&quot;&gt;	&lt;/span&gt;&lt;span style=&quot;white-space: pre;&quot;&gt;	&lt;/span&gt;&lt;span style=&quot;white-space: pre;&quot;&gt;	&lt;/span&gt;&lt;span style=&quot;white-space: pre;&quot;&gt;	&lt;/span&gt;&lt;/span&gt;11 - Imprime &quot;Enchufe la lampara&quot;. Vuelve a punto 4&lt;br&gt;12 - Fin&lt;br&gt;&lt;br&gt;&lt;span style=&quot;white-space: pre;&quot;&gt; &lt;/span&gt;&lt;span style=&quot;white-space: pre;&quot;&gt; &lt;/span&gt;&lt;span style=&quot;white-space: pre;&quot;&gt; &lt;/span&gt;&lt;br&gt;&lt;/p&gt;" style="text;html=1;strokeColor=none;fillColor=none;spacing=5;spacingTop=-20;whiteSpace=wrap;overflow=hidden;rounded=0;" parent="1" vertex="1">
          <mxGeometry x="30" y="10" width="420" height="390" as="geometry" />
        </mxCell>
      </root>
    </mxGraphModel>
  </diagram>
</mxfile>
